<svg width="437" height="437" viewBox="0 0 437 437" fill="none" xmlns="http://www.w3.org/2000/svg">
<rect x="81" y="71" width="275" height="275" rx="34" stroke="white" stroke-width="16"/>
<path d="M87 155H129C136.667 157.667 152 168.4 152 190C152 211.6 172.667 216.333 183 216H253C263.333 216.333 284 211.6 284 190C284 168.4 299.333 157.667 307 155H349" stroke="white" stroke-width="12"/>
<path d="M218.5 94.5C183.955 94.5 168.778 123.83 164.218 143.32C163.395 146.836 166.193 150 169.804 150H267.196C270.807 150 273.605 146.836 272.782 143.32C268.222 123.83 253.045 94.5 218.5 94.5Z" stroke="white" stroke-width="12"/>
<circle cx="218" cy="150" r="16" fill="white"/>
</svg>
